# xmcd
# 
# Track frame offsets:
#     150
#     18963
#     33963
#     59625
#     75850
#     98315
#     121723
#     140903
#     157265
#     173948
#     192883
#     206615
#     224580
#     239483
# 
# Disc length: 3416
# 
# Revision: 0
# Processed by: cddbd v1.5.2PL0 Copyright (c) Steve Scherf et al.
# Submitted via: fre:ac v1.0.17
# 
DISCID=bf0d560e
DTITLE=Faith Hill - There You'll Be (the Best Of)
DYEAR=2001
DGENRE=Country
TTITLE0=Breathe
TTITLE1=Over The Rainbow
TTITLE2=Somewhere Down The Road
TTITLE3=You Give Me Love
TTITLE4=My Wild Frontier
TTITLE5=Love Will Always Win
TTITLE6=There Will Come A Day
TTITLE7=If My Heart Had Wings
TTITLE8=Piece Of My Heart
TTITLE9=Let Me Let Go
TTITLE10=The Way You Love Me
TTITLE11=Breathe
TTITLE12=This Kiss
TTITLE13=There You'll Be
EXTD=
EXTT0=
EXTT1=
EXTT2=
EXTT3=
EXTT4=
EXTT5=
EXTT6=
EXTT7=
EXTT8=
EXTT9=
EXTT10=
EXTT11=
EXTT12=
EXTT13=
PLAYORDER=
